HIERARCHY
ROOT hip
{
	OFFSET 0.000000 0.000000 0.000000
	CHANNELS 6 Xposition Yposition Zposition Xrotation Zrotation Yrotation 
	JOINT abdomen
	{
		OFFSET 0.000000 3.422050 0.000000
		CHANNELS 3 Xrotation Zrotation Yrotation 
		JOINT chest
		{
			OFFSET 0.000000 8.486693 -0.684411
			CHANNELS 3 Xrotation Zrotation Yrotation 
			JOINT neck
			{
				OFFSET 0.000000 10.266162 -0.273764
				CHANNELS 3 Xrotation Zrotation Yrotation 
				JOINT head
				{
					OFFSET 0.000000 3.148285 0.000000
					CHANNELS 3 Xrotation Zrotation Yrotation 
					End Site
					{
						OFFSET 0.000000 3.148289 0.000000
					}
				}
			}
			JOINT lCollar
			{
				OFFSET 3.422053 6.707223 -0.821293
				CHANNELS 3 Yrotation Zrotation Xrotation 
				JOINT lShldr
				{
					OFFSET 3.285171 0.000000 0.000000
					CHANNELS 3 Zrotation Yrotation Xrotation 
					JOINT lForeArm
					{
						OFFSET 10.129278 0.000000 0.000000
						CHANNELS 3 Yrotation Zrotation Xrotation 
						JOINT lHand
						{
							OFFSET 8.486692 0.000000 0.000000
							CHANNELS 3 Zrotation Yrotation Xrotation 
							End Site
							{
								OFFSET 4.106464 0.000000 0.000000
							}
						}
					}
				}
			}
			JOINT rCollar
			{
				OFFSET -3.558935 6.707223 -0.821293
				CHANNELS 3 Yrotation Zrotation Xrotation 
				JOINT rShldr
				{
					OFFSET -3.148289 0.000000 0.000000
					CHANNELS 3 Zrotation Yrotation Xrotation 
					JOINT rForeArm
					{
						OFFSET -10.266159 0.000000 0.000000
						CHANNELS 3 Yrotation Zrotation Xrotation 
						JOINT rHand
						{
							OFFSET -8.349810 0.000000 0.000000
							CHANNELS 3 Zrotation Yrotation Xrotation 
							End Site
							{
								OFFSET -4.106464 0.000000 0.000000
							}
						}
					}
				}
			}
		}
	}
	JOINT lThigh
	{
		OFFSET 5.338403 -1.642589 1.368821
		CHANNELS 3 Xrotation Zrotation Yrotation 
		JOINT lShin
		{
			OFFSET -2.053232 -20.121670 0.000000
			CHANNELS 3 Xrotation Zrotation Yrotation 
			JOINT lFoot
			{
				OFFSET 0.000000 -19.300380 -1.231939
				CHANNELS 3 Xrotation Yrotation Zrotation 
				End Site
				{
					OFFSET 0.000000 -2.463878 4.653993
				}
			}
		}
	}
	JOINT rThigh
	{
		OFFSET -5.338403 -1.642589 1.368821
		CHANNELS 3 Xrotation Zrotation Yrotation 
		JOINT rShin
		{
			OFFSET 2.053232 -20.121670 0.000000
			CHANNELS 3 Xrotation Zrotation Yrotation 
			JOINT rFoot
			{
				OFFSET 0.000000 -19.300380 -1.231939
				CHANNELS 3 Xrotation Yrotation Zrotation 
				End Site
				{
					OFFSET 0.000000 -2.463878 4.653993
				}
			}
		}
	}
}
MOTION
Frames: 6
Frame Time: 0.049897
0.000000 43.528500 0.000000 0.000000 0.000000 0.000000 0.000000 0.000000 0.000000 0.000000 0.000000 0.000000 0.000000 0.000000 0.000000 0.000000 0.000000 0.000000 0.000000 0.000000 0.000000 0.000000 0.000000 0.000000 0.000000 0.000000 0.000000 0.000000 0.000000 0.000000 0.000000 0.000000 0.000000 0.000000 0.000000 0.000000 0.000000 0.000000 0.000000 0.000000 0.000000 0.000000 0.000000 0.000000 0.000000 0.000000 0.000000 0.000000 0.000000 0.000000 0.000000 0.000000 0.000000 0.000000 0.000000 0.000000 0.000000 0.000000 0.000000 0.000000 
0.820027 23.148125 -1.805238 26.996685 0.000000 0.000000 -16.104479 0.610630 -0.240026 -0.783810 0.567527 -1.138757 -0.382940 0.000000 0.000000 -0.606749 0.000000 0.000000 -31.726461 -12.622051 3.370533 -49.462410 25.527395 -5.142226 -88.493340 -29.361994 -22.567648 40.552868 -2.645721 -19.972338 31.722639 12.618556 3.371911 49.459190 -25.530807 -5.143029 88.485847 29.360613 -22.563047 -40.555832 2.641860 -19.971155 -33.170620 11.815728 9.744961 99.683380 2.572166 -0.186703 55.867287 8.115466 -15.745633 -32.661087 -11.768336 -9.831619 99.537308 -2.603553 0.212167 55.994419 -7.997021 15.831696 
0.820027 23.148125 -1.661726 25.835598 0.000000 0.000000 -15.107903 0.610640 -0.240025 0.486830 0.567527 -1.138701 -0.492889 0.000000 0.000000 -1.199223 0.000000 0.000000 -32.021976 -11.902838 2.843467 -49.717579 25.659464 -5.219087 -88.688019 -29.507414 -22.663507 40.909618 -2.955034 -20.105230 31.923492 11.762663 2.957079 49.459190 -25.530807 -5.143029 88.485847 29.360613 -22.563047 -40.607674 2.992698 -20.221169 -31.501604 11.755532 9.755468 99.137436 2.529353 -0.206795 55.867290 8.115465 -15.745633 -30.994864 -11.710192 -9.842259 98.985764 -2.560426 0.233602 55.994419 -7.997022 15.831697 
0.820027 23.148125 -1.518214 24.672592 0.000000 0.000000 -14.110110 0.610650 -0.240023 1.759997 0.567525 -1.138646 -0.602854 0.000000 0.000000 -1.792812 0.000000 0.000000 -32.310261 -11.180284 2.321019 -49.973244 25.791233 -5.296695 -88.883286 -29.652563 -22.760078 41.267300 -3.263604 -20.240129 32.117626 10.904415 2.546089 49.459190 -25.530807 -5.143029 88.485847 29.360613 -22.563047 -40.661072 3.343387 -20.471638 -29.827190 11.694851 9.764203 98.591339 2.486334 -0.226483 55.867287 8.115466 -15.745633 -29.323273 -11.651569 -9.851196 98.434059 -2.517078 0.254628 55.994419 -7.997021 15.831697 
0.820027 23.148125 -1.374702 23.507889 0.000000 0.000000 -13.111256 0.610661 -0.240022 3.035384 0.567522 -1.138591 -0.712835 0.000000 0.000000 -2.387488 0.000000 0.000000 -32.591385 -10.454564 1.803085 -50.229408 25.922697 -5.375042 -89.079109 -29.797424 -22.857359 41.625900 -3.571403 -20.377028 32.305161 10.043996 2.138799 49.459198 -25.530809 -5.143030 88.485847 29.360617 -22.563047 -40.716038 3.693907 -20.722580 -28.148075 11.633760 9.771140 98.045090 2.443116 -0.245766 55.867290 8.115465 -15.745633 -27.646999 -11.592542 -9.858402 97.882187 -2.473515 0.275240 55.994419 -7.997022 15.831697 
0.820027 23.148125 -1.231190 22.341736 0.000000 0.000000 -12.111487 0.610671 -0.240020 4.312679 0.567518 -1.138535 -0.822833 0.000000 0.000000 -2.983222 0.000000 0.000000 -32.865406 -9.725838 1.289553 -50.486080 26.053854 -5.454141 -89.275520 -29.942005 -22.955357 41.985458 -3.878406 -20.515944 32.486156 9.181567 1.735061 49.459190 -25.530807 -5.143029 88.485832 29.360611 -22.563046 -40.772575 4.044244 -20.974007 -26.464956 11.572336 9.776255 97.498726 2.399705 -0.264639 55.867287 8.115466 -15.745633 -25.966726 -11.533174 -9.863849 97.330223 -2.429745 0.295437 55.994419 -7.997020 15.831696 
